<svg xmlns="http://www.w3.org/2000/svg" viewBox="0 0 746.5 546.73"><defs><style>.cls-1{fill:#140f2d;}.cls-2{font-size:220px;fill:#fff;font-family:ArialMT, Arial;}</style></defs><title>icon</title><g id="Layer_2" data-name="Layer 2"><g id="Layer_3" data-name="Layer 3"><path class="cls-1" d="M746.5,292.86A114.12,114.12,0,0,1,632.38,407c-1.9,0-3.79,0-5.67-.14a114.16,114.16,0,0,1-176.1,55.85c-30.71,50.58-84.06,84-144.73,84-71,0-132-45.84-158.4-111.32a129,129,0,1,1-18.71-256.68q-.27-5.09-.27-10.24C128.5,75.44,193.72,0,274.17,0c53.59,0,100.42,33.47,125.71,83.33q6.89-1.29,14-2.18c92.88-11.71,174.73,30.8,182.81,94.94q.51,4.08.62,8.14A114.2,114.2,0,0,1,746.5,292.86Z"/><text class="cls-2" transform="translate(208.09 339.65)">{...}</text></g></g></svg>