<svg xmlns="http://www.w3.org/2000/svg" viewBox="0 0 756.5 556.73"><defs><style>.cls-1{fill:#0d3b66;stroke:#2d728f;stroke-miterlimit:10;stroke-width:10px;}.cls-2{font-size:220px;fill:#fbfbff;font-family:ArialMT, Arial;}</style></defs><title>icon</title><g id="Layer_2" data-name="Layer 2"><g id="Layer_3" data-name="Layer 3"><path class="cls-1" d="M751.5,297.86A114.12,114.12,0,0,1,637.38,412c-1.9,0-3.79,0-5.67-.14a114.16,114.16,0,0,1-176.1,55.85c-30.71,50.58-84.06,84-144.73,84-71,0-132-45.84-158.4-111.32a129,129,0,1,1-18.71-256.68q-.27-5.09-.27-10.24C133.5,80.44,198.72,5,279.17,5c53.59,0,100.42,33.47,125.71,83.33q6.89-1.29,14-2.18c92.88-11.71,174.73,30.8,182.81,94.94q.51,4.08.62,8.14A114.2,114.2,0,0,1,751.5,297.86Z"/><text class="cls-2" transform="translate(213.09 344.65)">{...}</text></g></g></svg>